<?xml version="1.0" encoding="utf-8"?>
<!-- Generator: Adobe Illustrator 25.4.1, SVG Export Plug-In . SVG Version: 6.00 Build 0)  -->
<svg version="1.1" id="Capa_1" xmlns="http://www.w3.org/2000/svg" xmlns:xlink="http://www.w3.org/1999/xlink" x="0px" y="0px"
	 viewBox="0 0 157 49.66" style="enable-background:new 0 0 157 49.66;" xml:space="preserve" width="300" height="95">
<style type="text/css">
	.st0{fill:#6E4744;}
	.st1{fill:none;}
</style>
<g>
	<path class="st0" d="M2.88,43.81l0.13-0.1c0.26-0.19,0.47-0.37,0.62-0.54c0.22-0.22,0.43-0.47,0.61-0.72
		c0.18-0.26,0.34-0.57,0.48-0.93l12.29-28.73l-0.44-1.14l-0.16-0.36l-0.18-0.39c-0.09-0.1-0.22-0.19-0.39-0.26l-0.13-0.05l1.17-1.81
		l14.31,35.04h-2.98l0.13-0.08c0.43-0.28,0.65-0.71,0.65-1.32L28.94,42l-0.29-0.72l-4.63-10.9H11.19l-4.66,11
		c-0.1,0.21-0.18,0.44-0.23,0.7l-0.08,0.49c0,0.35,0.17,0.7,0.52,1.06l0.18,0.18H2.88z M23.48,28.96l-5.67-14.41l-6.03,14.41H23.48z
		 M18.64,5.85l14.57,35.43c0.36,0.97,1,1.77,1.92,2.41l0.18,0.13h-2.69L17.69,7.5L18.64,5.85z"/>
	<path class="st0" d="M66.7,43.81l0.13-0.1c0.26-0.19,0.47-0.37,0.62-0.54c0.22-0.22,0.43-0.47,0.61-0.72
		c0.18-0.26,0.34-0.57,0.48-0.93l12.29-28.73l-0.44-1.14l-0.16-0.36l-0.18-0.39c-0.09-0.1-0.21-0.19-0.39-0.26l-0.13-0.05l1.17-1.81
		l14.31,35.04h-2.98l0.13-0.08c0.43-0.28,0.65-0.71,0.65-1.32L92.76,42l-0.29-0.72l-4.63-10.9H75.01l-4.66,11
		c-0.1,0.21-0.18,0.44-0.23,0.7l-0.08,0.49c0,0.35,0.17,0.7,0.52,1.06l0.18,0.18H66.7z M87.3,28.96l-5.67-14.41L75.6,28.96H87.3z
		 M82.46,5.85l14.57,35.43c0.36,0.97,1,1.77,1.92,2.41l0.18,0.13h-2.69L81.5,7.5L82.46,5.85z"/>
	<path class="st0" d="M102,43.81l0.26-0.21c0.6-0.59,0.92-1.49,0.96-2.72V10.53c-0.04-1.21-0.35-2.11-0.96-2.72L102,7.61h2.64v36.2
		H102z M106.06,7.61h14.26v2.64l-0.21-0.34c-0.33-0.45-0.76-0.72-1.29-0.83l-0.72-0.05h-10.61v16.64h9.39
		c0.79,0.03,1.45-0.28,1.97-0.93c0.03-0.09,0.1-0.18,0.21-0.29v3.86c-0.38-0.84-1.1-1.25-2.17-1.22h-9.39v13.79
		c-0.02,0.17,0.02,0.49,0.1,0.96c0.12,0.98,0.49,1.64,1.11,1.97h-2.64V7.61z"/>
	<path class="st0" d="M121.67,43.81l0.13-0.1c0.26-0.19,0.47-0.37,0.62-0.54c0.22-0.22,0.43-0.47,0.61-0.72
		c0.18-0.26,0.34-0.57,0.48-0.93l12.29-28.73l-0.44-1.14l-0.16-0.36l-0.18-0.39c-0.09-0.1-0.22-0.19-0.39-0.26l-0.13-0.05l1.17-1.81
		l14.31,35.04H147l0.13-0.08c0.43-0.28,0.65-0.71,0.65-1.32L147.73,42l-0.29-0.72l-4.63-10.9h-12.84l-4.66,11
		c-0.1,0.21-0.18,0.44-0.23,0.7L125,42.57c0,0.35,0.17,0.7,0.52,1.06l0.18,0.18H121.67z M142.27,28.96l-5.67-14.41l-6.03,14.41
		H142.27z M137.43,5.85L152,41.27c0.36,0.97,1,1.77,1.92,2.41l0.18,0.13h-2.69L136.47,7.5L137.43,5.85z"/>
</g>
<g>
	<path class="st1" d="M53.77,9.92c-2.63-2.69-5.23-5.35-7.83-8.01c-0.03,0.01-0.05,0.02-0.08,0.03c0.28,4.93,0.56,9.87,0.84,14.8
		c0.03,0,0.05,0.01,0.08,0.02L53.77,9.92z"/>
	<path class="st0" d="M64.11,6.07C63.4,5.9,62.67,6.3,62.4,6.97c-0.07,0.17-0.17,0.34-0.31,0.45c-4.97,4.26-9.95,8.51-14.93,12.76
		c-0.07,0.06-0.14,0.1-0.23,0.18c-0.02-0.11-0.03-0.16-0.03-0.22c-0.05-0.75-0.1-1.5-0.13-2.25c0-0.11,0.09-0.24,0.17-0.33
		c1.55-1.53,3.11-3.05,4.66-4.57c1.06-1.04,2.12-2.07,3.2-3.13C51.59,6.58,48.39,3.31,45.16,0c-0.08,0.23-0.14,0.41-0.21,0.57
		C44.88,0.74,44.9,0.86,45.04,1c0.22,0.2,0.43,0.41,0.61,0.63c0.08,0.09,0.13,0.23,0.12,0.35c-0.01,0.44-0.05,0.87-0.08,1.31
		c-0.15,2.68-0.3,5.35-0.46,8.02c-0.13,2.35-0.27,4.7-0.39,7.06c-0.01,0.22-0.08,0.37-0.24,0.52c-2.88,2.81-5.74,5.63-8.63,8.42
		c-0.49,0.48-0.53,1.11-0.74,1.69c3.15-3.08,6.31-6.17,9.5-9.29c0.01,0.11,0.02,0.16,0.02,0.2c-0.04,0.74-0.07,1.48-0.13,2.22
		c-0.01,0.14-0.11,0.3-0.22,0.4c-2.35,2.02-4.71,4.03-7.06,6.04c-0.08,0.07-0.16,0.14-0.24,0.21c0.01,0.01,0.02,0.02,0.04,0.04
		c2.45-1.77,4.89-3.53,7.38-5.33c0,0.23,0.01,0.39,0,0.55c-0.05,0.93-0.11,1.86-0.16,2.79c-0.08,1.44-0.16,2.88-0.24,4.32
		c-0.11,1.91-0.22,3.81-0.33,5.72c-0.07,1.18-0.14,2.35-0.21,3.53c-0.04,0.66-0.03,1.3,0.18,1.95c0.51,1.54,0.94,3.1,1.41,4.65
		c0.07,0.22,0.08,0.36-0.13,0.53c-0.39,0.33-0.48,0.92-0.28,1.42c0.19,0.46,0.61,0.73,1.1,0.71c0.49-0.02,0.81-0.3,0.99-0.74
		c0.2-0.49,0.09-1.08-0.3-1.41c-0.18-0.15-0.19-0.28-0.12-0.48c0.5-1.63,0.97-3.27,1.48-4.9c0.12-0.39,0.19-0.77,0.16-1.19
		c-0.09-1.18-0.13-2.37-0.2-3.56c-0.11-1.91-0.22-3.81-0.33-5.72c-0.08-1.45-0.16-2.9-0.24-4.35c-0.1-1.79-0.21-3.58-0.31-5.38
		c0-0.09,0.02-0.23,0.09-0.28c0.57-0.43,1.15-0.84,1.76-1.28c4.53,8.93,9.05,17.83,13.58,26.75c-0.7,0.12-1.04,0.52-1.13,1.15
		c-0.09,0.6,0.34,1.2,0.94,1.34c0.54,0.12,1.13-0.24,1.27-0.84c0.06-0.25,0.02-0.54,0-0.81c-0.02-0.24-0.11-0.48-0.11-0.72
		c-0.03-2.65-0.05-5.3-0.08-7.95c0-0.17-0.07-0.38-0.18-0.51c-4.65-6.09-9.32-12.18-13.98-18.27c-0.05-0.07-0.1-0.15-0.16-0.24
		c0.13-0.1,0.23-0.18,0.34-0.25c2.96-2.14,5.92-4.27,8.87-6.41c0.12-0.09,0.23-0.2,0.32-0.32c1.23-1.7,2.46-3.4,3.69-5.1
		c0.06-0.08,0.12-0.15,0.2-0.25c0.31,0.62,0.79,0.93,1.44,0.92c0.71-0.01,1.33-0.57,1.39-1.23C65.3,6.87,64.85,6.24,64.11,6.07z
		 M45.86,1.95c0.03-0.01,0.05-0.02,0.08-0.03c2.6,2.66,5.2,5.32,7.83,8.01l-6.99,6.84c-0.03,0-0.05-0.01-0.08-0.02
		C46.42,11.81,46.14,6.88,45.86,1.95z"/>
</g>
</svg>
